<?xml version="1.0" encoding="UTF-8"?>
<svg version="1.1" xmlns="http://www.w3.org/2000/svg" width="512" height="512">
<path d="M0 0 C16.5 0 33 0 50 0 C51.98 19.8 51.98 19.8 54 40 C57.39430218 40 59.54526738 37.14626986 62 35 C63.18011825 33.98466346 64.36111627 32.97034862 65.54296875 31.95703125 C66.12868652 31.45381348 66.7144043 30.9505957 67.31787109 30.43212891 C73.6701171 25.02396126 80.29528466 19.96007249 87 15 C91.83298806 19.02748053 96.38110004 23.24379413 100.80859375 27.7109375 C101.42017838 28.32393707 102.031763 28.93693665 102.66188049 29.56851196 C104.58947559 31.50164564 106.51353928 33.43824987 108.4375 35.375 C109.75432404 36.69684699 111.07137926 38.01846372 112.38867188 39.33984375 C115.59512373 42.55724299 118.79841629 45.77775681 122 49 C120.17709523 52.14643011 118.2887809 55.027923 115.9609375 57.8203125 C115.38424316 58.51584229 114.80754883 59.21137207 114.21337891 59.92797852 C113.60671387 60.65299561 113.00004883 61.3780127 112.375 62.125 C111.11964965 63.63660082 109.86444156 65.14831979 108.609375 66.66015625 C107.99642578 67.39637207 107.38347656 68.13258789 106.75195312 68.89111328 C104.3609742 71.76921751 101.99171211 74.66440826 99.625 77.5625 C98.91601562 78.43003906 98.20703125 79.29757813 97.4765625 80.19140625 C96.98929687 80.78824219 96.50203125 81.38507813 96 82 C98.16449147 84.16449147 102.83988485 83.68794227 105.84765625 83.97265625 C106.7340831 84.06002548 107.62050995 84.14739471 108.53379822 84.2374115 C111.37630913 84.5166086 114.21937677 84.78961575 117.0625 85.0625 C118.98506575 85.25024488 120.9075924 85.43839061 122.83007812 85.62695312 C127.55294359 86.08929502 132.27631749 86.54608487 137 87 C137.09152903 125.49825518 137.16202525 163.99649398 137.20426132 202.49483592 C137.20926422 207.03854965 137.21444151 211.58226316 137.21972656 216.12597656 C137.2207758 217.03055898 137.22182505 217.93514139 137.22290608 218.86713539 C137.2403176 233.51949751 137.2718594 248.17179694 137.30861118 262.82412185 C137.34599984 277.85557186 137.36823146 292.88698901 137.37635398 307.91848361 C137.38184606 317.19587291 137.39920053 326.47308502 137.43166587 335.75041978 C137.45278814 342.10977909 137.45920524 348.46904662 137.45400551 354.82843848 C137.45144015 358.49908637 137.45540906 362.16942435 137.4768219 365.84001732 C137.49986211 369.81860043 137.49196248 373.79677851 137.48101807 377.77542114 C137.49266943 378.93690143 137.5043208 380.09838171 137.51632524 381.29505837 C137.47130671 387.32874549 137.33767552 391.40145116 133 396 C128.49861702 399.82935742 124.84951801 400.57427636 119.103302 400.48101807 C118.32638406 400.48443577 117.54946611 400.48785347 116.7490052 400.49137473 C114.15536974 400.49794388 111.56277779 400.47599435 108.96923828 400.45410156 C107.10630823 400.45297287 105.2433764 400.45360737 103.38044739 400.45587158 C98.3291547 400.45701881 93.27824226 400.43350785 88.22703791 400.40557575 C82.94596442 400.38056375 77.66488213 400.37822025 72.38375854 400.37347412 C62.38594676 400.36104378 52.38831001 400.32822128 42.39057529 400.28807616 C31.00736426 400.24336036 19.62414485 400.22137188 8.24086785 400.20129442 C-15.17285179 400.15948878 -38.58641609 400.08913548 -62 400 C-61.91230347 400.68380737 -61.82460693 401.36761475 -61.73425293 402.07214355 C-60.90514516 408.54412607 -60.08088334 415.01670563 -59.26194 421.4899826 C-58.84083469 424.81723211 -58.41791687 428.14422946 -57.99072266 431.47070312 C-57.49953764 435.30280545 -57.01478772 439.13567617 -56.53125 442.96875 C-56.30157532 444.74421204 -56.30157532 444.74421204 -56.06726074 446.55554199 C-55.3334941 452.42251144 -54.82236477 458.08728451 -55 464 C-54.33680756 463.99111755 -53.67361511 463.98223511 -52.99032593 463.9730835 C-46.07973866 463.88450044 -39.16931304 463.82421985 -32.25830078 463.78027344 C-29.68010912 463.76017437 -27.10196296 463.73289059 -24.52392578 463.69824219 C-20.81531539 463.64965153 -17.10730844 463.62701342 -13.3984375 463.609375 C-12.24822113 463.58872986 -11.09800476 463.56808472 -9.91293335 463.54681396 C-3.80928256 463.54510756 0.35621379 463.58982307 5 468 C9 474 9 474 9 496 C-70.2 496 -149.4 496 -231 496 C-231 474 -231 474 -227 468 C-221.53842463 462.81317344 -215.70086232 463.48195024 -208.6015625 463.609375 C-207.41146576 463.61503479 -206.22136902 463.62069458 -204.99520874 463.62652588 C-201.20472514 463.64886549 -197.41519655 463.69906037 -193.625 463.75 C-191.05079493 463.77006799 -188.476575 463.78831823 -185.90234375 463.8046875 C-179.60123822 463.84872255 -173.30068735 463.91561195 -167 464 C-166.96334229 463.13503906 -166.92668457 462.27007812 -166.88891602 461.37890625 C-166.22256827 448.50332159 -164.58550743 435.78131869 -162.9375 423 C-162.65253154 420.76047556 -162.36802306 418.52089255 -162.08398438 416.28125 C-161.39461647 410.85348091 -160.69960404 405.42645871 -160 400 C-160.96852465 400.00368717 -161.93704929 400.00737434 -162.93492317 400.01117325 C-186.49549434 400.09995058 -210.05604383 400.16569309 -233.6167469 400.20724869 C-245.01050891 400.22787854 -256.40416045 400.25600734 -267.79785156 400.30175781 C-277.72798195 400.34161248 -287.65803236 400.36742973 -297.5882405 400.37635398 C-302.84679114 400.38157102 -308.10511292 400.39384195 -313.36359024 400.42292023 C-318.31297245 400.45006756 -323.2620315 400.45844632 -328.21148109 400.45243073 C-330.02794335 400.45353126 -331.84441641 400.46148918 -333.66081429 400.4768219 C-336.14204011 400.49673944 -338.62204768 400.49193322 -341.103302 400.48101807 C-341.82121418 400.49266943 -342.53912636 400.5043208 -343.27879345 400.51632524 C-348.32917974 400.45631961 -351.17109582 399.25727508 -355 396 C-359.93695792 390.66207047 -359.5646718 385.42641539 -359.50793457 378.53710938 C-359.51417453 377.37648735 -359.5204145 376.21586533 -359.52684355 375.02007294 C-359.54002301 371.80695867 -359.53530024 368.59445046 -359.52289867 365.38135147 C-359.51384211 361.91297455 -359.52782088 358.44467906 -359.53881836 354.97631836 C-359.55660178 348.18516216 -359.55276445 341.39418283 -359.5411678 334.60301971 C-359.53213303 329.08355763 -359.53090966 323.5641451 -359.53526306 318.04467773 C-359.53587599 317.25902042 -359.53648893 316.4733631 -359.53712043 315.66389799 C-359.53839934 314.06783357 -359.53969619 312.47176916 -359.5410108 310.87570477 C-359.55241607 295.91055595 -359.53930373 280.94550516 -359.51780933 265.98037243 C-359.49993838 253.1405117 -359.5030425 240.30079562 -359.52148438 227.4609375 C-359.54289203 212.54922351 -359.55131744 197.63759543 -359.53903532 182.72586823 C-359.53776113 181.13568625 -359.53650365 179.54550427 -359.53526306 177.95532227 C-359.53433741 176.78173259 -359.53433741 176.78173259 -359.53339306 175.58443403 C-359.52993984 170.07181199 -359.53576788 164.55924446 -359.54518127 159.04663086 C-359.55640149 152.32825392 -359.55336086 145.61006391 -359.5320583 138.89170837 C-359.52154802 135.46406771 -359.51742529 132.03673868 -359.53065491 128.60910034 C-359.54155539 124.89338444 -359.52791142 121.17855008 -359.50793457 117.46289062 C-359.51685746 116.37943108 -359.52578034 115.29597153 -359.53497362 114.17967987 C-359.47354786 108.30544626 -359.16684624 104.50527065 -355 100 C-349.77786658 95.2596193 -345.02903403 95.44110361 -338.3319397 95.51898193 C-336.7194138 95.51385538 -336.7194138 95.51385538 -335.07431161 95.50862527 C-331.47195867 95.50203646 -327.87035072 95.5240401 -324.26806641 95.54589844 C-321.68593361 95.54702669 -319.10379953 95.54639349 -316.52166748 95.54412842 C-310.96246249 95.54203289 -305.40344556 95.55456311 -299.84428787 95.57707977 C-291.80675163 95.60961357 -283.76930615 95.62000818 -275.73171119 95.62503174 C-262.69071818 95.63378224 -249.64982535 95.66039114 -236.60888672 95.69824219 C-223.94222514 95.73496863 -211.2755908 95.76327728 -198.60888672 95.78027344 C-197.82787022 95.78132433 -197.04685372 95.78237523 -196.24217005 95.78345796 C-192.32396736 95.78867818 -188.40576448 95.793733 -184.48756146 95.79870558 C-151.99163403 95.84015999 -119.4958321 95.91089944 -87 96 C-87 93.03 -87 90.06 -87 87 C-73.8 85.68 -60.6 84.36 -47 83 C-47 79.60569782 -49.85373014 77.45473262 -52 75 C-53.01533654 73.81988175 -54.02965138 72.63888373 -55.04296875 71.45703125 C-55.54618652 70.87131348 -56.0494043 70.2855957 -56.56787109 69.68212891 C-61.97603874 63.3298829 -67.03992751 56.70471534 -72 50 C-67.97251947 45.16701194 -63.75620587 40.61889996 -59.2890625 36.19140625 C-58.67606293 35.57982162 -58.06306335 34.968237 -57.43148804 34.33811951 C-55.49835436 32.41052441 -53.56175013 30.48646072 -51.625 28.5625 C-50.30315301 27.24567596 -48.98153628 25.92862074 -47.66015625 24.61132812 C-44.44275701 21.40487627 -41.22224319 18.20158371 -38 15 C-34.85356989 16.82290477 -31.972077 18.7112191 -29.1796875 21.0390625 C-28.48415771 21.61575684 -27.78862793 22.19245117 -27.07202148 22.78662109 C-26.34700439 23.39328613 -25.6219873 23.99995117 -24.875 24.625 C-23.36339918 25.88035035 -21.85168021 27.13555844 -20.33984375 28.390625 C-19.60362793 29.00357422 -18.86741211 29.61652344 -18.10888672 30.24804688 C-15.23078249 32.6390258 -12.33559174 35.00828789 -9.4375 37.375 C-8.13619141 38.43847656 -8.13619141 38.43847656 -6.80859375 39.5234375 C-6.21175781 40.01070312 -5.61492187 40.49796875 -5 41 C-2.83256971 38.83256971 -3.31232769 34.16367871 -3.02734375 31.15234375 C-2.94971802 30.36702271 -2.87209229 29.58170166 -2.79211426 28.77258301 C-2.50238144 25.82802963 -2.22041514 22.88271624 -1.9375 19.9375 C-1.298125 13.358125 -0.65875 6.77875 0 0 Z M-7.5546875 88.97265625 C-9.36689693 91.34553833 -9.36689693 91.34553833 -11 96 C12.76 96 36.52 96 61 96 C55.0068991 84.0137982 47.92518835 77.70958776 35.11328125 73.359375 C17.60235696 70.38154684 4.04112513 75.78579026 -7.5546875 88.97265625 Z " fill="#70D5FB" transform="translate(367,8)"/>
<path d="M0 0 C163.68 0 327.36 0 496 0 C496 38 496 38 492 44 C487.49861702 47.82935742 483.84951801 48.57427636 478.103302 48.48101807 C476.93792508 48.48614462 476.93792508 48.48614462 475.7490052 48.49137473 C473.15536974 48.49794388 470.56277779 48.47599435 467.96923828 48.45410156 C466.10630823 48.45297287 464.2433764 48.45360737 462.38044739 48.45587158 C457.3291547 48.45701881 452.27824226 48.43350785 447.22703791 48.40557575 C441.94596442 48.38056375 436.66488213 48.37822025 431.38375854 48.37347412 C421.38594676 48.36104378 411.38831001 48.32822128 401.39057529 48.28807616 C390.00736426 48.24336036 378.62414485 48.22137188 367.24086785 48.20129442 C343.82714821 48.15948878 320.41358391 48.08913548 297 48 C297.08769653 48.68380737 297.17539307 49.36761475 297.26574707 50.07214355 C298.09485484 56.54412607 298.91911666 63.01670563 299.73806 69.4899826 C300.15916531 72.81723211 300.58208313 76.14422946 301.00927734 79.47070312 C301.50046236 83.30280545 301.98521228 87.13567617 302.46875 90.96875 C302.62186646 92.15239136 302.77498291 93.33603271 302.93273926 94.55554199 C303.6665059 100.42251144 304.17763523 106.08728451 304 112 C304.66319244 111.99111755 305.32638489 111.98223511 306.00967407 111.9730835 C312.92026134 111.88450044 319.83068696 111.82421985 326.74169922 111.78027344 C329.31989088 111.76017437 331.89803704 111.73289059 334.47607422 111.69824219 C338.18468461 111.64965153 341.89269156 111.62701342 345.6015625 111.609375 C346.75177887 111.58872986 347.90199524 111.56808472 349.08706665 111.54681396 C355.19071744 111.54510756 359.35621379 111.58982307 364 116 C368 122 368 122 368 144 C288.8 144 209.6 144 128 144 C128 122 128 122 132 116 C137.46157537 110.81317344 143.29913768 111.48195024 150.3984375 111.609375 C151.58853424 111.61503479 152.77863098 111.62069458 154.00479126 111.62652588 C157.79527486 111.64886549 161.58480345 111.69906037 165.375 111.75 C167.94920507 111.77006799 170.523425 111.78831823 173.09765625 111.8046875 C179.39876178 111.84872255 185.69931265 111.91561195 192 112 C192.05498657 110.70255859 192.05498657 110.70255859 192.11108398 109.37890625 C192.77743173 96.50332159 194.41449257 83.78131869 196.0625 71 C196.34746846 68.76047556 196.63197694 66.52089255 196.91601562 64.28125 C197.60538353 58.85348091 198.30039596 53.42645871 199 48 C198.03147535 48.00368717 197.06295071 48.00737434 196.06507683 48.01117325 C172.50450566 48.09995058 148.94395617 48.16569309 125.3832531 48.20724869 C113.98949109 48.22787854 102.59583955 48.25600734 91.20214844 48.30175781 C81.27201805 48.34161248 71.34196764 48.36742973 61.4117595 48.37635398 C56.15320886 48.38157102 50.89488708 48.39384195 45.63640976 48.42292023 C40.68702755 48.45006756 35.7379685 48.45844632 30.78851891 48.45243073 C28.97205665 48.45353126 27.15558359 48.46148918 25.33918571 48.4768219 C22.85795989 48.49673944 20.37795232 48.49193322 17.896698 48.48101807 C17.17878582 48.49266943 16.46087364 48.5043208 15.72120655 48.51632524 C10.67082026 48.45631961 7.82890418 47.25727508 4 44 C0 38 0 38 0 0 Z " fill="#407AD6" transform="translate(8,360)"/>
<path d="M0 0 C16.5 0 33 0 50 0 C51.98 19.8 51.98 19.8 54 40 C57.39430218 40 59.54526738 37.14626986 62 35 C63.18011825 33.98466346 64.36111627 32.97034862 65.54296875 31.95703125 C66.42154541 31.20220459 66.42154541 31.20220459 67.31787109 30.43212891 C73.6701171 25.02396126 80.29528466 19.96007249 87 15 C91.83298806 19.02748053 96.38110004 23.24379413 100.80859375 27.7109375 C101.42017838 28.32393707 102.031763 28.93693665 102.66188049 29.56851196 C104.58947559 31.50164564 106.51353928 33.43824987 108.4375 35.375 C109.75432404 36.69684699 111.07137926 38.01846372 112.38867188 39.33984375 C115.59512373 42.55724299 118.79841629 45.77775681 122 49 C120.17709523 52.14643011 118.2887809 55.027923 115.9609375 57.8203125 C115.095896 58.86360718 115.095896 58.86360718 114.21337891 59.92797852 C113.30338135 61.01550415 113.30338135 61.01550415 112.375 62.125 C111.11964965 63.63660082 109.86444156 65.14831979 108.609375 66.66015625 C107.99642578 67.39637207 107.38347656 68.13258789 106.75195312 68.89111328 C104.3609742 71.76921751 101.99171211 74.66440826 99.625 77.5625 C98.91601562 78.43003906 98.20703125 79.29757813 97.4765625 80.19140625 C96.98929688 80.78824219 96.50203125 81.38507813 96 82 C98.16743029 84.16743029 102.83632129 83.68767231 105.84765625 83.97265625 C106.63297729 84.05028198 107.41829834 84.12790771 108.22741699 84.20788574 C111.17197037 84.49761856 114.11728376 84.77958486 117.0625 85.0625 C126.9315625 86.0215625 126.9315625 86.0215625 137 87 C137 103.17 137 119.34 137 136 C131.99673211 137.66775596 126.73729774 137.84066019 121.50561523 138.35717773 C119.46855741 138.55941662 117.43255793 138.77053177 115.39648438 138.98242188 C108.23834636 139.69858847 101.19498728 140.22107205 94 140 C98.11608156 145.17033678 102.2518066 150.3232901 106.4375 155.4375 C107.54738281 156.79875 107.54738281 156.79875 108.6796875 158.1875 C110.29106713 160.14068743 111.92286186 162.07713967 113.5703125 164 C114.39273438 164.969375 115.21515625 165.93875 116.0625 166.9375 C116.81660156 167.81277344 117.57070313 168.68804687 118.34765625 169.58984375 C120 172 120 172 120 176 C118.78515625 177.69586182 118.78515625 177.69586182 117.0625 179.39160156 C116.42183594 180.0319635 115.78117188 180.67232544 115.12109375 181.33209229 C114.42113281 182.01140808 113.72117187 182.69072388 113 183.390625 C112.28972656 184.09523865 111.57945312 184.79985229 110.84765625 185.52581787 C108.57430627 187.77675647 106.28745164 190.01340194 104 192.25 C102.4574243 193.77251704 100.9157458 195.29594368 99.375 196.8203125 C95.59368535 200.55749658 91.80118556 204.28303484 88 208 C84.11264821 206.17366434 81.09509226 203.6780678 77.875 200.875 C76.71310403 199.87789805 75.55033511 198.88181248 74.38671875 197.88671875 C73.81356934 197.39606934 73.24041992 196.90541992 72.64990234 196.39990234 C66.30081618 191.01285587 59.69985508 185.94067525 53 181 C52.96261719 182.00933594 52.92523438 183.01867187 52.88671875 184.05859375 C52.30413057 197.47548895 50.68377832 210.67618892 49 224 C33.16 224 17.32 224 1 224 C0.34 218.01875 -0.32 212.0375 -1 205.875 C-1.31324219 203.0594458 -1.31324219 203.0594458 -1.6328125 200.18701172 C-1.79713156 198.68459835 -1.96121 197.18215864 -2.125 195.6796875 C-2.25455078 194.52738647 -2.25455078 194.52738647 -2.38671875 193.35180664 C-2.83484559 189.21063453 -3.09287283 185.17347277 -3 181 C-11.51314552 187.57245885 -19.82022742 194.3194398 -27.94140625 201.37109375 C-30.5730257 203.65161083 -33.26414762 205.8449431 -36 208 C-38.95265112 206.67005617 -41.02350216 205.22220684 -43.29980469 202.92724609 C-43.92014587 202.30675385 -44.54048706 201.6862616 -45.17962646 201.04696655 C-45.83706848 200.37920197 -46.4945105 199.71143738 -47.171875 199.0234375 C-47.8542926 198.33819 -48.53671021 197.6529425 -49.23980713 196.94692993 C-51.41461598 194.76094155 -53.58236072 192.56809571 -55.75 190.375 C-57.2247999 188.89016745 -58.70005506 187.40578694 -60.17578125 185.921875 C-63.78915448 182.2864709 -67.39620853 178.64490176 -71 175 C-69.17366434 171.11264821 -66.6780678 168.09509226 -63.875 164.875 C-62.87789805 163.71310403 -61.88181248 162.55033511 -60.88671875 161.38671875 C-60.15074463 160.52699463 -60.15074463 160.52699463 -59.39990234 159.64990234 C-54.01285587 153.30081618 -48.94067525 146.69985508 -44 140 C-45.49273437 139.92652344 -45.49273437 139.92652344 -47.015625 139.8515625 C-55.26023574 139.41989702 -63.4720327 138.82154673 -71.6875 138 C-72.94191895 137.8755249 -72.94191895 137.8755249 -74.22167969 137.74853516 C-78.53133832 137.30502197 -82.71284035 136.71452661 -87 136 C-87 119.83 -87 103.66 -87 87 C-73.8 85.68 -60.6 84.36 -47 83 C-47 79.60569782 -49.85373014 77.45473262 -52 75 C-53.01533654 73.81988175 -54.02965138 72.63888373 -55.04296875 71.45703125 C-55.54618652 70.87131348 -56.0494043 70.2855957 -56.56787109 69.68212891 C-61.97603874 63.3298829 -67.03992751 56.70471534 -72 50 C-67.97251947 45.16701194 -63.75620587 40.61889996 -59.2890625 36.19140625 C-58.67606293 35.57982162 -58.06306335 34.968237 -57.43148804 34.33811951 C-55.49835436 32.41052441 -53.56175013 30.48646072 -51.625 28.5625 C-50.30315301 27.24567596 -48.98153628 25.92862074 -47.66015625 24.61132812 C-44.44275701 21.40487627 -41.22224319 18.20158371 -38 15 C-34.85356989 16.82290477 -31.972077 18.7112191 -29.1796875 21.0390625 C-28.48415771 21.61575684 -27.78862793 22.19245117 -27.07202148 22.78662109 C-26.34700439 23.39328613 -25.6219873 23.99995117 -24.875 24.625 C-23.36339918 25.88035035 -21.85168021 27.13555844 -20.33984375 28.390625 C-19.60362793 29.00357422 -18.86741211 29.61652344 -18.10888672 30.24804688 C-15.23078249 32.6390258 -12.33559174 35.00828789 -9.4375 37.375 C-8.56996094 38.08398438 -7.70242188 38.79296875 -6.80859375 39.5234375 C-6.21175781 40.01070312 -5.61492187 40.49796875 -5 41 C-2.83256971 38.83256971 -3.31232769 34.16367871 -3.02734375 31.15234375 C-2.94971802 30.36702271 -2.87209229 29.58170166 -2.79211426 28.77258301 C-2.50238144 25.82802963 -2.22041514 22.88271624 -1.9375 19.9375 C-1.298125 13.358125 -0.65875 6.77875 0 0 Z M-7.5546875 88.97265625 C-9.36689693 91.34553833 -9.36689693 91.34553833 -11 96 C12.76 96 36.52 96 61 96 C55.0068991 84.0137982 47.92518835 77.70958776 35.11328125 73.359375 C17.60235696 70.38154684 4.04112513 75.78579026 -7.5546875 88.97265625 Z " fill="#407AD6" transform="translate(367,8)"/>
<path d="M0 0 C42.24 0 84.48 0 128 0 C128 42.24 128 84.48 128 128 C85.76 128 43.52 128 0 128 C0 85.76 0 43.52 0 0 Z " fill="#FD8745" transform="translate(40,168)"/>
<path d="M0 0 C32.34 0 64.68 0 98 0 C99.155 9.075 100.31 18.15 101.5 27.5 C101.86544922 30.35076172 102.23089844 33.20152344 102.60742188 36.13867188 C102.89492468 38.41531493 103.18205868 40.69200461 103.46875 42.96875 C103.61989258 44.13696289 103.77103516 45.30517578 103.92675781 46.50878906 C104.662738 52.39162391 105.17811667 58.07125954 105 64 C105.66319244 63.99111755 106.32638489 63.98223511 107.00967407 63.9730835 C113.92026134 63.88450044 120.83068696 63.82421985 127.74169922 63.78027344 C130.31989088 63.76017437 132.89803704 63.73289059 135.47607422 63.69824219 C139.18468461 63.64965153 142.89269156 63.62701342 146.6015625 63.609375 C147.75177887 63.58872986 148.90199524 63.56808472 150.08706665 63.54681396 C156.19071744 63.54510756 160.35621379 63.58982307 165 68 C169 74 169 74 169 96 C89.8 96 10.6 96 -71 96 C-71 74 -71 74 -67 68 C-61.53842463 62.81317344 -55.70086232 63.48195024 -48.6015625 63.609375 C-47.41146576 63.61503479 -46.22136902 63.62069458 -44.99520874 63.62652588 C-41.20472514 63.64886549 -37.41519655 63.69906037 -33.625 63.75 C-31.05079493 63.77006799 -28.476575 63.78831823 -25.90234375 63.8046875 C-19.60119612 63.84872285 -13.30075983 63.91773639 -7 64 C-6.67 58.72 -6.34 53.44 -6 48 C-3.03 24.24 -3.03 24.24 0 0 Z " fill="#3F79D6" transform="translate(207,408)"/>
<path d="M0 0 C32.34 0 64.68 0 98 0 C99.155 9.075 100.31 18.15 101.5 27.5 C101.86544922 30.35076172 102.23089844 33.20152344 102.60742188 36.13867188 C102.89492468 38.41531493 103.18205868 40.69200461 103.46875 42.96875 C103.61989258 44.13696289 103.77103516 45.30517578 103.92675781 46.50878906 C104.13993652 48.21276855 104.13993652 48.21276855 104.35742188 49.95117188 C104.48177612 50.92824097 104.60613037 51.90531006 104.73425293 52.9119873 C105.05124202 56.59543841 105 60.30293439 105 64 C68.04 64 31.08 64 -7 64 C-5.66132716 42.58123462 -2.66185463 21.29483706 0 0 Z " fill="#2463C3" transform="translate(207,408)"/>
<path d="M0 0 C24.42 0 48.84 0 74 0 C77.56683716 14.26734864 78.4082004 23.40760751 71.6796875 36.5859375 C65.11169752 47.10189959 55.87553055 53.04364429 44 56 C31.99105353 57.25782791 22.49717947 55.06725097 12.625 48.125 C4.27448615 41.33371073 -0.44480261 33.4291533 -3 23 C-3.30078125 19.31640625 -3.30078125 19.31640625 -3.3125 15.5625 C-3.32925781 14.32628906 -3.34601563 13.09007813 -3.36328125 11.81640625 C-3 8 -3 8 0 0 Z " fill="#70D5FB" transform="translate(355,104)"/>
<path d="M0 0 C4.03025716 0.83963691 5.31764286 2.54123033 8 5.625 C9.5124054 8.61558533 9.5124054 8.61558533 10.77075195 11.97241211 C11.00556778 12.587733 11.24038361 13.20305389 11.48231506 13.83702087 C12.24789538 15.8539689 12.99351994 17.87762543 13.73828125 19.90234375 C14.26830846 21.31606206 14.79926337 22.72943288 15.33110046 24.14247131 C16.43980764 27.0972723 17.53896225 30.05539465 18.63110352 33.01635742 C20.02836381 36.80295827 21.44644329 40.58133876 22.87142658 44.35758114 C23.96926937 47.27252166 25.05731212 50.19104287 26.14232445 53.11078072 C26.66153264 54.50517383 27.18343522 55.89856685 27.70812416 57.29090691 C28.44059106 59.23987969 29.16003784 61.19318788 29.8762207 63.14819336 C30.2874971 64.25674179 30.6987735 65.36529022 31.12251282 66.50743103 C32.03700761 69.75648202 32.32111361 72.2694799 32 75.625 C29.54405875 78.94774404 28.0743356 80.40118008 24 81.25 C19.76745987 80.36822081 18.54810974 79.13725937 16 75.625 C15.01 71.995 14.02 68.365 13 64.625 C4.42 64.625 -4.16 64.625 -13 64.625 C-13.99 68.255 -14.98 71.885 -16 75.625 C-18.54810974 79.13725937 -19.76745987 80.36822081 -24 81.25 C-28.1855322 80.37801412 -29.61234617 79.17030418 -32 75.625 C-31.86720579 67.3938669 -28.93858719 60.19542632 -26.046875 52.578125 C-25.54409992 51.23552463 -25.04185094 49.89272714 -24.5401001 48.54974365 C-23.4912231 45.75004328 -22.43459326 42.95342578 -21.37255859 40.15869141 C-20.01677244 36.58842395 -18.68307411 33.01035861 -17.35532761 29.4295845 C-16.3251675 26.66003082 -15.28226519 23.89540808 -14.23563385 21.13204193 C-13.73870431 19.81479435 -13.24595086 18.49596303 -12.75759125 17.17551422 C-12.07258099 15.32854722 -11.36818637 13.48880514 -10.66308594 11.64941406 C-10.26861267 10.60400452 -9.8741394 9.55859497 -9.4677124 8.48150635 C-7.25531414 4.17566981 -4.8457771 1.0095369 0 0 Z " fill="#2864C2" transform="translate(88,183.375)"/>
<path d="M0 0 C7.47588274 -0.06785817 14.95159632 -0.12286332 22.42772198 -0.15543652 C25.8994411 -0.17107243 29.37093803 -0.19227212 32.8425293 -0.22631836 C36.83644712 -0.26524063 40.83013263 -0.27972629 44.82421875 -0.29296875 C46.06709152 -0.30845261 47.30996429 -0.32393646 48.59049988 -0.33988953 C49.75132584 -0.34011612 50.91215179 -0.34034271 52.1081543 -0.34057617 C53.63704536 -0.35056892 53.63704536 -0.35056892 55.19682312 -0.36076355 C58.47230388 0.06078461 60.34857323 1.06215722 63 3 C64.16322272 5.32644544 64.11864846 6.65781426 64.11010742 9.24682617 C64.11068649 10.12501511 64.11126556 11.00320404 64.11186218 11.90800476 C64.10975235 12.86004288 64.10764252 13.81208099 64.10546875 14.79296875 C64.11892939 16.80534923 64.13395337 18.81771975 64.15039062 20.83007812 C64.17319053 24.00563937 64.18752916 27.18008087 64.17504883 30.35571289 C64.16621004 33.41894937 64.19519225 36.47996239 64.23046875 39.54296875 C64.21823776 40.48488571 64.20600677 41.42680267 64.19340515 42.39726257 C64.31854941 49.24386836 66.19475927 52.27873157 71 57 C72.73045446 60.46090891 72.34579074 64.20910888 72 68 C70.17465409 73.27322153 67.39280797 75.79691086 63 79 C58.14850603 80.61716466 53.44274083 81.21926097 48.73828125 78.87109375 C44.51524749 75.88140441 41.58263476 73.04464829 40 68 C39.31298719 63.17351757 39.47959799 59.96902443 41.8125 55.625 C44 53 44 53 45.60473633 51.8190918 C47.81268709 48.94044943 47.4814099 45.75856912 47.51171875 42.26953125 C47.52835571 41.60417358 47.54499268 40.93881592 47.56213379 40.2532959 C47.61986603 37.77335049 47.65216911 35.2928657 47.6875 32.8125 C47.790625 27.264375 47.89375 21.71625 48 16 C32.16 16 16.32 16 0 16 C0 10.72 0 5.44 0 0 Z " fill="#407AD6" transform="translate(168,256)"/>
<path d="M0 0 C4.42995484 3.15019011 8.15392011 6.83024961 9.29296875 12.3125 C9.46703256 17.2194416 8.52664328 20.8318514 5.8125 25 C5.12679932 25.51248291 4.44109863 26.02496582 3.73461914 26.55297852 C0.74117543 30.36388749 1.26696042 34.12769416 1.30859375 38.83984375 C1.29917252 39.79895157 1.28975128 40.75805939 1.28004456 41.74623108 C1.25137144 44.81020464 1.24831709 47.87340304 1.25 50.9375 C1.24639187 53.99791334 1.23684651 57.05776177 1.20924377 60.11805725 C1.19246476 62.02117278 1.18957237 63.92447422 1.20225525 65.82762146 C1.16401927 70.64711643 1.09973303 74.16979728 -2.1875 78 C-5.34084826 79.05111609 -7.54262283 79.12070472 -10.85229492 79.11352539 C-12.01327194 79.11344986 -13.17424896 79.11337433 -14.3704071 79.11329651 C-15.62360245 79.10813522 -16.87679779 79.10297394 -18.16796875 79.09765625 C-19.45109451 79.0962413 -20.73422028 79.09482635 -22.05622864 79.09336853 C-25.46420241 79.08955405 -28.87213343 79.07973291 -32.28009033 79.06866455 C-35.75898663 79.05842743 -39.23788985 79.05386598 -42.71679688 79.04882812 C-49.54038389 79.03810967 -56.36393549 79.02052152 -63.1875 79 C-63.1875 73.72 -63.1875 68.44 -63.1875 63 C-47.3475 63 -31.5075 63 -15.1875 63 C-15.1875 51.45 -15.1875 39.9 -15.1875 28 C-16.5075 27.34 -17.8275 26.68 -19.1875 26 C-22.92416863 21.70975083 -23.54053189 17.80845523 -23.46875 12.28125 C-22.87930611 7.50020514 -20.03929203 4.75038822 -16.5625 1.6875 C-11.35777127 -2.01059673 -6.01791561 -1.88797352 0 0 Z " fill="#407AD6" transform="translate(231.1875,129)"/>
<path d="M0 0 C4.42995484 3.15019011 8.15392011 6.83024961 9.29296875 12.3125 C9.46646935 17.20356452 8.60883642 20.89870658 5.8125 25 C1.87644039 28.96832239 -1.7491793 31.10891224 -7.375 31.4375 C-13.36219699 31.41790197 -17.10508399 28.08241601 -21.1875 24 C-23.74249309 23.87497358 -26.27180642 23.81395823 -28.82836914 23.79467773 C-29.62830795 23.78477814 -30.42824677 23.77487854 -31.25242615 23.76467896 C-33.90913892 23.73297082 -36.5658696 23.70826992 -39.22265625 23.68359375 C-41.05969215 23.66303225 -42.89672324 23.642036 -44.73374939 23.62062073 C-49.57854318 23.56531696 -54.42338025 23.51594445 -59.26824951 23.46777344 C-64.20816925 23.41761889 -69.14802583 23.36190134 -74.08789062 23.30664062 C-83.78770856 23.19895752 -93.48757989 23.09804905 -103.1875 23 C-103.1875 17.72 -103.1875 12.44 -103.1875 7 C-99.51645142 7.00169189 -99.51645142 7.00169189 -95.77124023 7.00341797 C-87.67257176 7.0027896 -79.57427753 6.96928236 -71.47576809 6.9197216 C-66.56696876 6.89068602 -61.65864634 6.87262371 -56.74975586 6.87988281 C-52.00964682 6.88648454 -47.27047946 6.86394329 -42.53056526 6.82144547 C-40.72496964 6.81032922 -38.91927835 6.80960075 -37.11367607 6.81957626 C-34.57792203 6.8317867 -32.04502582 6.80660459 -29.50952148 6.77294922 C-28.76792786 6.78517014 -28.02633423 6.79739105 -27.26226807 6.8099823 C-21.98105564 6.68419842 -19.38323614 5.05540724 -15.62149143 1.38298225 C-11.48189766 -2.6093601 -5.07963081 -1.59360967 0 0 Z " fill="#3F79D5" transform="translate(271.1875,217)"/>
<path d="M0 0 C31.68 0 63.36 0 96 0 C96 5.28 96 10.56 96 16 C64.32 16 32.64 16 0 16 C0 10.72 0 5.44 0 0 Z " fill="#407AD6" transform="translate(360,304)"/>
<path d="M0 0 C31.68 0 63.36 0 96 0 C96 5.28 96 10.56 96 16 C64.32 16 32.64 16 0 16 C0 10.72 0 5.44 0 0 Z " fill="#407AD6" transform="translate(328,272)"/>
<path d="M0 0 C4.05849678 0.84552016 5.40187475 2.43410449 8 5.625 C8.62145996 8.81213379 8.62145996 8.81213379 8.61523438 12.44726562 C8.62078339 13.11296066 8.6263324 13.7786557 8.63204956 14.46452332 C8.64381299 16.65417606 8.61960909 18.8417436 8.59375 21.03125 C8.59203789 22.55912176 8.5921056 24.08699646 8.59387207 25.61486816 C8.59222073 28.8127056 8.57355839 32.00984039 8.54199219 35.20751953 C8.50231448 39.29991941 8.49794795 43.39139964 8.50545502 47.48395538 C8.50852928 50.63763811 8.49638812 53.79111533 8.47932434 56.94474792 C8.47230909 58.45337128 8.46916802 59.96201792 8.47001648 61.47065735 C8.46821217 63.58177525 8.44677892 65.69180541 8.41992188 67.80273438 C8.41150269 69.00232788 8.4030835 70.20192139 8.39440918 71.43786621 C7.96267056 74.926651 7.09354151 76.82780348 5 79.625 C2.19084526 81.02957737 0.11189466 80.87395157 -3 80.625 C-6.1359157 78.84515595 -6.84102736 78.10191793 -8 74.625 C-8.11471388 72.42864887 -8.16938102 70.22900451 -8.19287109 68.02978516 C-8.20104858 67.36438217 -8.20922607 66.69897919 -8.21765137 66.01341248 C-8.24244353 63.81363821 -8.25900377 61.61392812 -8.2734375 59.4140625 C-8.27876118 58.66180767 -8.28408485 57.90955284 -8.28956985 57.13450241 C-8.31627229 53.15413177 -8.33565797 49.17379221 -8.35009766 45.19335938 C-8.3634468 41.90108517 -8.3913201 38.60942934 -8.43212891 35.31738281 C-8.48143965 31.33920858 -8.50621609 27.36159592 -8.51332474 23.38312912 C-8.5200366 21.86884808 -8.53525729 20.35457955 -8.55921555 18.84047318 C-8.59086941 16.71931974 -8.59090568 14.60033191 -8.58349609 12.47900391 C-8.59158295 11.27337799 -8.5996698 10.06775208 -8.60800171 8.82559204 C-7.65856353 3.8276385 -4.98208815 1.03793503 0 0 Z " fill="#2664C3" transform="translate(136,183.375)"/>
<path d="M0 0 C4.42995484 3.15019011 8.15392011 6.83024961 9.29296875 12.3125 C9.46646935 17.20356452 8.60883642 20.89870658 5.8125 25 C2.93967894 27.96938648 0.05480233 30.62567921 -4.1875 31 C-5.425 31.144375 -6.6625 31.28875 -7.9375 31.4375 C-13.22124682 31.36836686 -16.56122553 28.62627447 -20.1875 25 C-23.52036219 20.31316254 -24.09177869 15.59648037 -23.1875 10 C-18.21529843 0.23975247 -10.29568976 -3.23002032 0 0 Z " fill="#2666C5" transform="translate(231.1875,129)"/>
<path d="M0 0 C3.7534937 2.99150626 6.75395451 6.24374238 7.40234375 11.09765625 C7.60464373 16.12986815 7.02169768 19.7379684 4.12109375 23.9921875 C0.18503414 27.96050989 -3.44058555 30.10109974 -9.06640625 30.4296875 C-14.68112387 30.36557164 -18.03599666 27.91628532 -21.87890625 23.9921875 C-25.21176844 19.30535004 -25.78318494 14.58866787 -24.87890625 8.9921875 C-22.5012707 4.32497698 -19.17282154 0.08321007 -14.02734375 -1.62109375 C-9.39800044 -2.45437555 -4.19508845 -2.25017218 0 0 Z " fill="#2666C5" transform="translate(232.87890625,306.0078125)"/>
<path d="M0 0 C4.42995484 3.15019011 8.15392011 6.83024961 9.29296875 12.3125 C9.46646935 17.20356452 8.60883642 20.89870658 5.8125 25 C1.87644039 28.96832239 -1.7491793 31.10891224 -7.375 31.4375 C-12.16003799 31.37505252 -14.92531809 29.83939828 -18.51953125 26.76171875 C-21.73550855 23.36498394 -23.04306505 20.23874167 -23.34375 15.578125 C-23.13685767 9.88858579 -21.72990534 6.51835635 -17.85546875 2.375 C-12.46513184 -2.06855642 -6.47365633 -2.03095101 0 0 Z " fill="#2666C5" transform="translate(271.1875,217)"/>
<path d="M0 0 C5.28 0 10.56 0 16 0 C16 5.28 16 10.56 16 16 C10.72 16 5.44 16 0 16 C0 10.72 0 5.44 0 0 Z " fill="#407AD6" transform="translate(328,304)"/>
<path d="M0 0 C5.28 0 10.56 0 16 0 C16 5.28 16 10.56 16 16 C10.72 16 5.44 16 0 16 C0 10.72 0 5.44 0 0 Z " fill="#407AD6" transform="translate(440,272)"/>
<path d="M0 0 C0.66 0 1.32 0 2 0 C2.8394882 2.10171867 3.67139656 4.20646625 4.5 6.3125 C4.9640625 7.48425781 5.428125 8.65601563 5.90625 9.86328125 C7 13 7 13 7 16 C3.04 16 -0.92 16 -5 16 C-4.39363767 10.23955788 -2.24341721 5.27985631 0 0 Z " fill="#F0854D" transform="translate(87,216)"/>
</svg>
