<?xml version="1.0" encoding="UTF-8"?>
<svg version="1.1" xmlns="http://www.w3.org/2000/svg" width="100" height="100">
<path d="M0 0 C7.70691922 6.57733366 11.67698912 14.24403796 12.91796875 24.171875 C13.52191719 33.47525096 11.3945888 41.11469487 6.10546875 48.796875 C3.60546875 51.609375 3.60546875 51.609375 1.10546875 53.796875 C0.38359375 54.4775 -0.33828125 55.158125 -1.08203125 55.859375 C-10.30201557 62.21091975 -19.98074238 63.10495772 -30.89453125 61.796875 C-34.31733929 60.95068079 -36.9555194 59.72222766 -39.89453125 57.796875 C-40.58804688 57.37277344 -41.2815625 56.94867188 -41.99609375 56.51171875 C-49.63634432 51.37529562 -54.12749302 44.18317699 -56.42578125 35.33203125 C-58.24495142 25.49335259 -56.45264161 16.51998165 -51.14453125 8.046875 C-45.47396711 0.14709646 -38.69973722 -4.10921547 -29.45703125 -6.953125 C-18.43471417 -8.02847301 -9.16286454 -6.55185359 0 0 Z " fill="#E3E2FE" transform="translate(73.89453125,22.203125)"/>
<path d="M0 0 C7.00463321 6.22634063 10.07546985 13.71330164 11 23 C11.39298932 32.91206408 7.85606575 41.48558156 1.4375 49 C0.633125 49.66 -0.17125 50.32 -1 51 C-1.721875 51.680625 -2.44375 52.36125 -3.1875 53.0625 C-12.35723199 59.37942648 -22.12849612 60.38761631 -33 59 C-37.59731048 57.71395498 -41.05785769 55.62809487 -45 53 C-44.67 52.34 -44.34 51.68 -44 51 C-42.948125 51.474375 -41.89625 51.94875 -40.8125 52.4375 C-32.41743349 55.98990339 -24.09896926 55.91114657 -15.484375 53.03515625 C-6.44552958 49.26897066 -0.23203343 43.21434391 3.8125 34.3125 C7.20321587 24.85418731 6.62042631 16.32830562 3 7 C2.04710343 5.30596166 1.06639644 3.62498505 0 2 C0 1.34 0 0.68 0 0 Z " fill="#D3D3F8" transform="translate(76,25)"/>
<path d="M0 0 C1.9375 1.0625 1.9375 1.0625 3 3 C2.875 6.5625 2.875 6.5625 2 10 C-1 12 -1 12 -4.0625 11.75 C-7 11 -7 11 -9 9 C-9.33015665 5.89652746 -9.50531294 3.84218824 -7.875 1.125 C-5.11909116 -0.52854531 -3.14924548 -0.39365568 0 0 Z " fill="#D0CFF6" transform="translate(56,38)"/>
<path d="M0 0 C3.77491089 1.25830363 5.46183391 2.96830161 8 6 C8 8.72614374 7.33223069 9.64008342 5.5 11.625 C5.005 12.07875 4.51 12.5325 4 13 C3.67 13.66 3.34 14.32 3 15 C-1.24822374 14.52797514 -3.19989709 12.03344482 -6 9 C-4.47291037 5.56404834 -2.40072955 2.88087546 0 0 Z " fill="#7878F7" transform="translate(12,72)"/>
<path d="M0 0 C0.66 0 1.32 0 2 0 C3.0064275 1.66279327 4.00585407 3.32983484 5 5 C5.99 5.66 6.98 6.32 8 7 C8 9 8 9 5.6875 11.5 C3 14 3 14 0 16 C-1.00893131 14.90398831 -2.00688225 13.79786082 -3 12.6875 C-3.556875 12.07261719 -4.11375 11.45773438 -4.6875 10.82421875 C-6 9 -6 9 -6 6 C-3.5625 3.375 -3.5625 3.375 -1 1 C-0.67 0.67 -0.34 0.34 0 0 Z " fill="#7777F6" transform="translate(84,7)"/>
<path d="M0 0 C0.99 0 1.98 0 3 0 C5.1875 2.5 5.1875 2.5 7 5 C5.79618552 7.49361571 4.54571278 9.68143083 3 12 C2.01 12 1.02 12 0 12 C-2.1875 9.5 -2.1875 9.5 -4 7 C-2.79618552 4.50638429 -1.54571278 2.31856917 0 0 Z " fill="#7676F7" transform="translate(13,18)"/>
<path d="M0 0 C2.99332739 0.9977758 3.94766315 1.7522025 6 4 C4.79618552 6.49361571 3.54571278 8.68143083 2 11 C-1.39914975 9.86695008 -2.05254451 8.87481525 -4 6 C-2.84826645 3.53199953 -1.95216435 1.95216435 0 0 Z " fill="#7878F6" transform="translate(88,65)"/>
<path d="M0 0 C2.625 0.375 2.625 0.375 5 1 C5.625 3.375 5.625 3.375 6 6 C4 8 4 8 1.4375 8.1875 C-1 8 -1 8 -2 7 C-2.1875 4.5625 -2.1875 4.5625 -2 2 C-1.34 1.34 -0.68 0.68 0 0 Z " fill="#CECEF6" transform="translate(68,58)"/>
<path d="M0 0 C2.5625 -0.25 2.5625 -0.25 5 0 C6 1 6 1 6.1875 3.4375 C6 6 6 6 4 8 C1.375 7.625 1.375 7.625 -1 7 C-1.625 5.1875 -1.625 5.1875 -2 3 C-1.34 2.01 -0.68 1.02 0 0 Z " fill="#CFCFF6" transform="translate(67,33)"/>
<path d="M0 0 C0.66 0.33 1.32 0.66 2 1 C2.81640625 3.58203125 2.81640625 3.58203125 3.5625 6.8125 C3.81128906 7.87082031 4.06007813 8.92914063 4.31640625 10.01953125 C4.54199219 11.00308594 4.76757812 11.98664062 5 13 C5.32973547 14.33422764 5.66135727 15.66800526 6 17 C5.01 17 4.02 17 3 17 C2.32320342 15.274773 1.65898 13.54461061 1 11.8125 C0.443125 10.36810547 0.443125 10.36810547 -0.125 8.89453125 C-0.98130906 6.0618303 -1.25028745 3.93566326 -1 1 C-0.67 0.67 -0.34 0.34 0 0 Z " fill="#EFEFFF" transform="translate(22,48)"/>
<path d="M0 0 C1.6875 1.5 1.6875 1.5 3 3 C1.63016497 6.16115776 1.0109362 6.9927092 -2 9 C-3.37562854 7.71034824 -4.70766393 6.37310707 -6 5 C-6 3 -6 3 -4.6875 1.375 C-3 0 -3 0 0 0 Z " fill="#6F6FF5" transform="translate(62,86)"/>
<path d="M0 0 C-0.54581199 3.79549259 -2.05409295 5.30979295 -4.9375 7.75 C-5.64777344 8.36359375 -6.35804687 8.9771875 -7.08984375 9.609375 C-9 11 -9 11 -11 11 C-10.45418801 7.20450741 -8.94590705 5.69020705 -6.0625 3.25 C-5.35222656 2.63640625 -4.64195313 2.0228125 -3.91015625 1.390625 C-2 0 -2 0 0 0 Z " fill="#F0EFFF" transform="translate(38,23)"/>
<path d="M0 0 C0.66 0 1.32 0 2 0 C3.125 2.3125 3.125 2.3125 4 5 C3.01 6.485 3.01 6.485 2 8 C0.68 7.34 -0.64 6.68 -2 6 C-2 2 -2 2 0 0 Z " fill="#7373F5" transform="translate(48,5)"/>
<path d="M0 0 C1.98 0.495 1.98 0.495 4 1 C3.67 2.65 3.34 4.3 3 6 C1.68 5.67 0.36 5.34 -1 5 C-0.67 3.35 -0.34 1.7 0 0 Z " fill="#CFCFF6" transform="translate(57,68)"/>
<path d="M0 0 C0.99 0.33 1.98 0.66 3 1 C2.67 2.65 2.34 4.3 2 6 C0.68 5.67 -0.64 5.34 -2 5 C-1.125 1.125 -1.125 1.125 0 0 Z " fill="#CFCFF6" transform="translate(39,43)"/>
<path d="M0 0 C2.475 0.495 2.475 0.495 5 1 C4.67 2.32 4.34 3.64 4 5 C2.68 5 1.36 5 0 5 C0 3.35 0 1.7 0 0 Z " fill="#CECEF5" transform="translate(55,23)"/>
<path d="M0 0 C0.33 0.99 0.66 1.98 1 3 C0.360625 3.61875 -0.27875 4.2375 -0.9375 4.875 C-3.03883584 6.82597612 -3.03883584 6.82597612 -4 9 C-4.99 8.67 -5.98 8.34 -7 8 C-4.69 5.36 -2.38 2.72 0 0 Z " fill="#6464F1" transform="translate(19,78)"/>
<path d="M0 0 C1.98 0.495 1.98 0.495 4 1 C3.67 2.32 3.34 3.64 3 5 C1.68 4.67 0.36 4.34 -1 4 C-0.67 2.68 -0.34 1.36 0 0 Z " fill="#CFCFF6" transform="translate(61,53)"/>
<path d="M0 0 C0 2 0 2 -2.5 4.625 C-3.325 5.40875 -4.15 6.1925 -5 7 C-5.99 6.67 -6.98 6.34 -8 6 C-3.375 0 -3.375 0 0 0 Z " fill="#5E5EF0" transform="translate(92,14)"/>
<path d="M0 0 C1.98 0.495 1.98 0.495 4 1 C3.67 2.32 3.34 3.64 3 5 C1.68 4.67 0.36 4.34 -1 4 C-0.67 2.68 -0.34 1.36 0 0 Z " fill="#D0D0F6" transform="translate(42,68)"/>
<path d="M0 0 C0.99 0.33 1.98 0.66 3 1 C3 2.32 3 3.64 3 5 C1.35 4.67 -0.3 4.34 -2 4 C-1.34 2.68 -0.68 1.36 0 0 Z " fill="#CDCDF5" transform="translate(46,57)"/>
<path d="M0 0 C0.66 0 1.32 0 2 0 C0.79618552 2.49361571 -0.45428722 4.68143083 -2 7 C-2.99 6.67 -3.98 6.34 -5 6 C-3.38405168 3.95880212 -1.7143618 1.95927063 0 0 Z " fill="#6363F3" transform="translate(92,69)"/>
<path d="M0 0 C0.99 0.33 1.98 0.66 3 1 C2.67 2.32 2.34 3.64 2 5 C0.68 4.67 -0.64 4.34 -2 4 C-1.34 2.68 -0.68 1.36 0 0 Z " fill="#CFCFF6" transform="translate(75,49)"/>
<path d="M0 0 C-3 2 -3 2 -5 2 C-5.66 3.65 -6.32 5.3 -7 7 C-7.6875 5.1875 -7.6875 5.1875 -8 3 C-5.85915306 -0.33020635 -3.75910189 -0.30479204 0 0 Z " fill="#C5C5F0" transform="translate(55,38)"/>
<path d="M0 0 C0.66 0 1.32 0 2 0 C0.79618552 2.49361571 -0.45428722 4.68143083 -2 7 C-2.99 6.67 -3.98 6.34 -5 6 C-3.38405168 3.95880212 -1.7143618 1.95927063 0 0 Z " fill="#6363F1" transform="translate(18,23)"/>
<path d="M0 0 C0.99 0.33 1.98 0.66 3 1 C2.67 2.32 2.34 3.64 2 5 C1.01 5 0.02 5 -1 5 C-0.67 3.35 -0.34 1.7 0 0 Z " fill="#CECDF5" transform="translate(39,30)"/>
</svg>
